<?xml version="1.0" encoding="UTF-8"?>
<svg version="1.1" xmlns="http://www.w3.org/2000/svg" width="512" height="512">
<path d="M0 0 C1.03479492 0.19335938 2.06958984 0.38671875 3.13574219 0.5859375 C52.8103939 10.0394395 97.63553322 32.90850172 134 68 C134.58845703 68.56654297 135.17691406 69.13308594 135.78320312 69.71679688 C143.38989463 77.07942341 150.56924846 84.56679024 157 93 C157.41282227 93.53641113 157.82564453 94.07282227 158.25097656 94.62548828 C169.35712799 109.1226741 179.35643647 124.42853407 187.06884766 141.00634766 C188.00863808 143.01849464 188.97830962 145.01443375 189.94921875 147.01171875 C205.70773329 180.14997821 212.45497907 216.14957818 212.3125 252.625 C212.30976578 254.07933441 212.30976578 254.07933441 212.30697632 255.56304932 C212.26158948 269.90676756 211.79642666 283.8917753 209 298 C208.76651855 299.27302979 208.76651855 299.27302979 208.52832031 300.57177734 C202.76299739 331.53305744 191.18874122 362.5779015 174 389 C173.36835938 389.99386719 172.73671875 390.98773438 172.0859375 392.01171875 C162.66272734 406.53432042 152.08118945 419.6252174 140 432 C139.43603516 432.58442871 138.87207031 433.16885742 138.29101562 433.77099609 C131.24978751 441.05960766 124.00929711 447.76555414 116 454 C115.02933594 454.78761719 114.05867188 455.57523437 113.05859375 456.38671875 C104.84742602 462.93304396 96.1643618 468.42483432 87.11914062 473.74658203 C85.24921249 474.85259713 83.39606101 475.98090792 81.546875 477.12109375 C57.08964401 491.80133989 28.93350717 500.80306843 1 506 C0.13842285 506.16371094 -0.7231543 506.32742188 -1.61083984 506.49609375 C-29.16802887 511.46820167 -60.52335599 511.395627 -88 506 C-89.03479492 505.80664062 -90.06958984 505.61328125 -91.13574219 505.4140625 C-140.77758249 495.96680479 -185.66077413 473.06714095 -222 438 C-222.88268555 437.15018555 -222.88268555 437.15018555 -223.78320312 436.28320312 C-231.38989463 428.92057659 -238.56924846 421.43320976 -245 413 C-245.41282227 412.46358887 -245.82564453 411.92717773 -246.25097656 411.37451172 C-257.35388815 396.88155496 -267.35290445 381.57932902 -275.06445312 365.00683594 C-275.69494311 363.65437569 -276.33448115 362.30610124 -276.98242188 360.96191406 C-286.58868592 341.02844803 -292.87625227 319.70561792 -297 298 C-297.16371094 297.18144531 -297.32742188 296.36289062 -297.49609375 295.51953125 C-302.8163189 267.86315423 -302.46933369 235.59328167 -297 208 C-296.76651855 206.72697021 -296.76651855 206.72697021 -296.52832031 205.42822266 C-291.64218879 179.18842853 -282.76118833 150.68247518 -268.3203125 128.07421875 C-266.98114785 125.97038316 -265.80035616 123.82392792 -264.625 121.625 C-254.86845629 103.98935475 -242.02456629 88.36538676 -228 74 C-227.43603516 73.41557129 -226.87207031 72.83114258 -226.29101562 72.22900391 C-219.24978751 64.94039234 -212.00929711 58.23444586 -204 52 C-203.02933594 51.21238281 -202.05867188 50.42476562 -201.05859375 49.61328125 C-192.84742602 43.06695604 -184.1643618 37.57516568 -175.11914062 32.25341797 C-173.24921249 31.14740287 -171.39606101 30.01909208 -169.546875 28.87890625 C-145.08964401 14.19866011 -116.93350717 5.19693157 -89 0 C-88.13842285 -0.16371094 -87.2768457 -0.32742188 -86.38916016 -0.49609375 C-58.83197113 -5.46820167 -27.47664401 -5.395627 0 0 Z " fill="#5F259F" transform="translate(300,3)"/>
<path d="M0 0 C4.54767685 3.62343768 8.00837095 8.26843847 11.61328125 12.79296875 C14.16123399 15.90082194 16.82644431 18.84815693 19.56640625 21.78515625 C23.01849958 25.49331308 26.33165612 29.27025057 29.50390625 33.22265625 C32.8698689 37.40752932 36.39816642 41.36830023 40.06640625 45.28515625 C44.5251282 50.04606959 48.70438249 54.94983188 52.7890625 60.0390625 C55.28467408 63.04835056 57.90412419 65.92447746 60.56640625 68.78515625 C64.84169853 73.38126254 68.88119521 78.11233298 72.80078125 83.01953125 C73.5484375 83.9321875 74.29609375 84.84484375 75.06640625 85.78515625 C75.44224854 86.4719043 75.81809082 87.15865234 76.20532227 87.86621094 C78.25857297 91.06591617 80.11609912 93.34969991 83.97174072 94.21057129 C89.79553623 94.8602468 95.65579525 94.66803162 101.50390625 94.53515625 C104.1567151 94.49602001 106.80834049 94.46880534 109.46144104 94.4644165 C111.1056409 94.45963315 112.74996077 94.43436819 114.39341736 94.38470459 C120.08560373 94.33885142 124.30040902 95.62872538 129.06640625 98.78515625 C135.10251717 104.9801122 135.43004827 111.02790582 135.44140625 119.28515625 C135.46589844 120.22230469 135.49039063 121.15945312 135.515625 122.125 C135.51949219 123.03378906 135.52335938 123.94257813 135.52734375 124.87890625 C135.53556152 125.70068359 135.5437793 126.52246094 135.55224609 127.36914062 C134.85442144 130.83932795 133.62550863 132.33590156 131.06640625 134.78515625 C128.10975831 135.23164926 125.74378079 135.37248187 122.80078125 135.2734375 C122.00738342 135.26636276 121.2139856 135.25928802 120.39654541 135.2519989 C117.8688626 135.22406673 115.34341637 135.16133614 112.81640625 135.09765625 C111.10029247 135.0725716 109.38414387 135.04975871 107.66796875 135.02929688 C103.46658954 134.97424464 99.26687673 134.88798488 95.06640625 134.78515625 C95.06917163 135.83614061 95.07193701 136.88712498 95.07478619 137.96995735 C95.1413615 163.53339453 95.19067245 189.09682047 95.22184277 214.660326 C95.23731684 227.02260543 95.25841676 239.38482762 95.29272461 251.74707031 C95.32261033 262.52100375 95.34197732 273.29489574 95.34867173 284.06886947 C95.35258537 289.77450242 95.36179435 295.48001676 95.38359642 301.18561172 C95.40394841 306.55519011 95.41024261 311.92460096 95.40572929 317.29421425 C95.40655507 319.26547341 95.41252832 321.23673813 95.42402267 323.20796394 C95.43894655 325.89919412 95.43536019 328.58979158 95.4271698 331.28103638 C95.43590832 332.06120373 95.44464685 332.84137108 95.45365018 333.64517987 C95.41426041 338.4330498 94.60415773 341.71699728 92.06640625 345.78515625 C87.50986288 349.1322542 81.33699533 348.15391136 75.94140625 348.16015625 C74.85085938 348.18464844 73.7603125 348.20914062 72.63671875 348.234375 C63.86210136 348.26586286 56.02855443 346.89834634 49.44140625 340.72265625 C47.06640625 337.78515625 47.06640625 337.78515625 47.06640625 334.78515625 C46.40640625 334.78515625 45.74640625 334.78515625 45.06640625 334.78515625 C44.13997345 331.64016597 43.94493652 328.83068376 43.95288086 325.55761719 C43.95295639 324.51684021 43.95303192 323.47606323 43.95310974 322.40374756 C43.95827103 321.28695618 43.96343231 320.17016479 43.96875 319.01953125 C43.97087242 317.29672943 43.97087242 317.29672943 43.97303772 315.53912354 C43.97863482 311.87110794 43.99118681 308.2031534 44.00390625 304.53515625 C44.00892162 302.04817796 44.01348447 299.56119872 44.01757812 297.07421875 C44.0286033 290.97784375 44.04533856 284.88150436 44.06640625 278.78515625 C42.43940796 279.30372192 42.43940796 279.30372192 40.77954102 279.83276367 C39.33484347 280.289694 37.89009808 280.74647309 36.4453125 281.203125 C35.73298462 281.43060425 35.02065674 281.6580835 34.28674316 281.89245605 C12.7240106 288.68839614 -11.5803687 288.1079637 -32.24609375 278.72265625 C-47.57010656 270.47939419 -57.91832524 256.98813385 -63.93359375 240.78515625 C-67.1847463 229.88749454 -69.10400296 218.91379092 -69.04711914 207.53320312 C-69.04726517 206.75174927 -69.04741119 205.97029541 -69.04756165 205.16516113 C-69.0468713 202.61138014 -69.0391205 200.05767433 -69.03125 197.50390625 C-69.0293827 195.72172078 -69.02796027 193.9395348 -69.02696228 192.15734863 C-69.02316171 187.48851073 -69.01335266 182.81970441 -69.0022583 178.15087891 C-68.99199106 173.37793403 -68.98745332 168.60498401 -68.98242188 163.83203125 C-68.97172798 154.48305911 -68.9546814 145.13411032 -68.93359375 135.78515625 C-69.68979004 135.80610352 -70.44598633 135.82705078 -71.22509766 135.84863281 C-74.66945975 135.9320621 -78.11360882 135.98390249 -81.55859375 136.03515625 C-82.74839844 136.06867188 -83.93820313 136.1021875 -85.1640625 136.13671875 C-93.05114129 136.22484254 -96.86169789 135.7384532 -102.54296875 130.22265625 C-107.85936133 123.52254506 -108.29775969 119.17071565 -108.30859375 110.78515625 C-108.33308594 109.78742188 -108.35757813 108.7896875 -108.3828125 107.76171875 C-108.38667969 106.80007812 -108.39054688 105.8384375 -108.39453125 104.84765625 C-108.40274902 103.97238281 -108.4109668 103.09710938 -108.41943359 102.1953125 C-107.76163309 98.93209311 -106.49730309 97.86838864 -103.93359375 95.78515625 C-101.37990952 95.29296494 -101.37990952 95.29296494 -98.44134521 95.30413818 C-97.32517822 95.29863953 -96.20901123 95.29314087 -95.059021 95.28747559 C-93.83910461 95.30185669 -92.61918823 95.31623779 -91.36230469 95.33105469 C-90.07424927 95.33047058 -88.78619385 95.32988647 -87.45910645 95.32928467 C-83.93030676 95.32813712 -80.40205107 95.35165222 -76.8733778 95.3795805 C-73.18451382 95.40458778 -69.49563733 95.40693561 -65.80670166 95.41168213 C-58.82268586 95.42411394 -51.83892055 95.45693814 -44.85501504 95.49708009 C-36.90347657 95.54179156 -28.95192614 95.56378323 -21.00029325 95.58386183 C-4.64458012 95.62567075 11.7108811 95.69602657 28.06640625 95.78515625 C27.28268143 95.00175873 26.4989566 94.21836121 25.69148254 93.41122437 C23.50215895 91.22107359 21.31940868 89.02483726 19.140625 86.82421875 C17.67844295 85.35280741 16.21620195 83.88145465 14.75390625 82.41015625 C13.67206055 81.31574219 13.67206055 81.31574219 12.56835938 80.19921875 C8.48360567 76.09614777 4.30443274 72.19235472 -0.08276367 68.41552734 C-2.82930342 65.99613776 -5.37988291 63.4047805 -7.93359375 60.78515625 C-11.15522115 57.51929368 -14.36905954 54.31661126 -17.87109375 51.34765625 C-21.59317093 48.18505622 -25.00225179 44.75544647 -28.43359375 41.28515625 C-31.82365229 37.8567052 -35.18553383 34.46254883 -38.87109375 31.34765625 C-42.83853594 27.94454851 -46.61808962 24.35883535 -50.37109375 20.72265625 C-50.99943115 20.13234619 -51.62776855 19.54203613 -52.27514648 18.93383789 C-55.88800123 15.3883927 -57.74794468 13.08826243 -57.93359375 7.78515625 C-54.46958985 4.75889805 -51.53665913 3.04389508 -47.15234375 1.6796875 C-46.06308594 1.33615234 -44.97382813 0.99261719 -43.8515625 0.63867188 C-42.15966797 0.12336914 -42.15966797 0.12336914 -40.43359375 -0.40234375 C-38.74169922 -0.93504883 -38.74169922 -0.93504883 -37.015625 -1.47851562 C-23.94660176 -5.55388559 -12.3024421 -7.72941311 0 0 Z " fill="#FEFDFE" transform="translate(236.93359375,76.21484375)"/>
<path d="M0 0 C20.79 0 41.58 0 63 0 C63 33.33 63 66.66 63 101 C47.39228054 105.45934842 28.96226806 110.11738513 13.65234375 101.7109375 C5.81445506 96.23174055 1.76266839 89.33415634 0 80 C-0.40149752 73.83760062 -0.35039284 67.69601852 -0.29296875 61.5234375 C-0.28736409 59.74411377 -0.28309811 57.96478536 -0.28010559 56.18545532 C-0.26872528 51.53296828 -0.23931782 46.88076825 -0.20599365 42.22839355 C-0.16970808 36.62987701 -0.15609912 31.03126378 -0.13863373 25.43266296 C-0.10967556 16.95490985 -0.05214127 8.47778482 0 0 Z " fill="#60269F" transform="translate(218,212)"/>
<path d="M0 0 C4.70478962 3.42166518 8.27653164 7.57905197 12 12 C9 12 9 12 6.73828125 10.13671875 C5.93777344 9.32847656 5.13726562 8.52023437 4.3125 7.6875 C3.50425781 6.88699219 2.69601563 6.08648437 1.86328125 5.26171875 C0 3 0 3 0 0 Z " fill="#6527A8" transform="translate(68,428)"/>
<path d="M0 0 C3.62613199 0.56959153 5.25517741 1.92374534 7.75 4.5625 C8.36359375 5.20316406 8.9771875 5.84382813 9.609375 6.50390625 C10.06828125 6.99761719 10.5271875 7.49132812 11 8 C10.67 8.66 10.34 9.32 10 10 C8.33037631 8.52417192 6.6643694 7.04425109 5 5.5625 C4.071875 4.73878906 3.14375 3.91507812 2.1875 3.06640625 C1.465625 2.38449219 0.74375 1.70257813 0 1 C0 0.67 0 0.34 0 0 Z " fill="#6627AA" transform="translate(429,69)"/>
</svg>
