<?xml version="1.0" encoding="UTF-8"?>
<svg version="1.1" xmlns="http://www.w3.org/2000/svg" width="512" height="512">
<path d="M0 0 C5.31828668 3.12435879 10.66397215 6.20097778 16.00927734 9.27880859 C17.08910889 9.90110352 18.16894043 10.52339844 19.28149414 11.16455078 C21.47156513 12.42663111 23.66175088 13.68851231 25.85205078 14.95019531 C32.35732309 18.69832379 38.86017691 22.45065181 45.36181641 26.20507812 C50.89811853 29.40128516 56.43839321 32.59025942 61.98583984 35.76708984 C94.04202068 54.14195802 121.76193723 70.75781378 132.97119141 108.50634766 C139.04693455 131.34276154 136.11984091 156.10863749 125.13427734 176.84130859 C124.76447754 177.53998047 124.39467773 178.23865234 124.01367188 178.95849609 C117.59360231 191.01187459 110.71046932 202.79777522 103.80224609 214.57568359 C100.07101764 220.93901895 96.37949677 227.32480414 92.69677734 233.71630859 C92.07448242 234.79605957 91.4521875 235.87581055 90.81103516 236.98828125 C89.54899009 239.17845394 88.28710882 241.36872102 87.02539062 243.55908203 C83.27939383 250.06065458 79.52901544 256.55970291 75.77709961 263.05786133 C72.88464321 268.06854416 69.99501541 273.08077739 67.11730957 278.09994507 C66.1087942 279.85859608 65.09922964 281.61664068 64.08935547 283.37451172 C62.83077216 285.5660309 61.57410747 287.75865363 60.31982422 289.95263672 C49.33643046 309.06006027 38.7683924 324.53657706 16.85302734 331.18505859 C-7.49642555 337.06251274 -26.24249277 327.29718364 -46.45825195 314.99145508 C-49.91311694 312.6647591 -49.91311694 312.6647591 -53.86572266 311.84130859 C-54.24156494 312.49276855 -54.61740723 313.14422852 -55.00463867 313.81542969 C-55.53758545 314.7392041 -56.07053223 315.66297852 -56.61962891 316.61474609 C-57.21952637 317.65493896 -57.81942383 318.69513184 -58.4375 319.7668457 C-59.77898731 322.09133359 -61.12155727 324.41515729 -62.46582031 326.73803711 C-65.63486591 332.21760151 -68.79604914 337.70048911 -71.89909363 343.21777344 C-72.8781324 344.95755967 -73.86202336 346.69461247 -74.84594727 348.43164062 C-76.07256057 350.59848362 -77.2913552 352.76977913 -78.50073242 354.94628906 C-92.06568773 378.8106685 -112.2475194 395.17152287 -138.45556641 402.89990234 C-175.61435522 411.79587813 -204.16017199 397.02209983 -235.42431641 378.61474609 C-242.20374892 374.62954619 -249.03179736 370.7318627 -255.86572266 366.84130859 C-265.53426618 361.33353658 -275.16919989 355.77194984 -284.765625 350.13916016 C-290.18209836 346.96656425 -295.62072105 343.83941452 -301.09228516 340.76318359 C-336.03481812 321.09675543 -362.04403593 298.55498677 -374.04150391 259.19677734 C-376.46578912 249.32729393 -377.25442292 239.94751513 -377.24072266 229.77880859 C-377.24017883 229.09599823 -377.23963501 228.41318787 -377.23907471 227.70968628 C-377.19869385 216.66164654 -376.29691772 206.39170391 -372.86572266 195.84130859 C-372.66205078 195.18243652 -372.45837891 194.52356445 -372.24853516 193.84472656 C-368.62891657 182.36305062 -362.92416183 172.18956187 -356.86572266 161.84130859 C-355.78856684 159.9873353 -354.71175846 158.13316012 -353.63525391 156.27880859 C-351.28669205 152.2408831 -348.92999473 148.20782391 -346.56884766 144.17724609 C-342.82937676 137.78848868 -339.12447231 131.38014783 -335.42822266 124.96630859 C-334.8060083 123.88671875 -334.18379395 122.80712891 -333.54272461 121.69482422 C-332.28060749 119.50448339 -331.01864481 117.31405357 -329.75683594 115.12353516 C-327.8762416 111.85956532 -325.9943172 108.59636671 -324.11181641 105.33349609 C-323.49298584 104.26075439 -322.87415527 103.1880127 -322.23657227 102.08276367 C-320.99470583 99.93109192 -319.7520369 97.77988312 -318.50854492 95.62915039 C-315.6055995 90.60562713 -312.71097753 85.57792469 -309.84875488 80.53109741 C-308.8416404 78.75628389 -307.83165397 76.98313559 -306.82080078 75.21044922 C-305.55857999 72.9949428 -304.30167541 70.77639524 -303.05126953 68.55419922 C-294.24303872 53.1324141 -283.40589013 40.35520958 -265.61572266 35.46630859 C-247.93779949 32.39188717 -233.90637215 37.10385235 -218.67822266 46.02880859 C-217.56125 46.67011719 -216.44427734 47.31142578 -215.29345703 47.97216797 C-213.25266063 49.14417172 -211.21490816 50.32150527 -209.18139648 51.50610352 C-207.76441671 52.32312644 -206.32869447 53.10982269 -204.86572266 53.84130859 C-204.49398926 53.16253662 -204.12225586 52.48376465 -203.73925781 51.78442383 C-193.79014496 33.67213286 -184.33793624 16.67420039 -169.86572266 1.84130859 C-169.28564453 1.19935547 -168.70556641 0.55740234 -168.10791016 -0.10400391 C-149.84396046 -19.83641187 -120.42355763 -30.40293625 -94.21337891 -32.09619141 C-57.87754333 -32.7745734 -30.49661654 -17.99208997 0 0 Z " fill="#337EEF" transform="translate(376.86572265625,69.15869140625)"/>
<path d="M0 0 C1.16466797 -0.020625 2.32933594 -0.04125 3.52929688 -0.0625 C14.1391082 -0.10978607 23.30586998 1.90632372 32.9375 6.25 C34.02933594 6.52714844 35.12117188 6.80429688 36.24609375 7.08984375 C53.29153718 12.44698312 68.04738401 29.83168044 76.15527344 44.984375 C87.46061918 67.06028191 91.34866085 93.5494841 84.18359375 117.62890625 C82.18498039 123.43678897 79.81308018 128.82301779 76.9375 134.25 C76.5677002 134.94867188 76.19790039 135.64734375 75.81689453 136.3671875 C69.39682497 148.420566 62.51369197 160.20646662 55.60546875 171.984375 C51.87424029 178.34771035 48.18271942 184.73349555 44.5 191.125 C43.87770508 192.20475098 43.25541016 193.28450195 42.61425781 194.39697266 C41.35221274 196.58714534 40.09033148 198.77741243 38.82861328 200.96777344 C35.08261648 207.46934599 31.3322381 213.96839431 27.58032227 220.46655273 C24.68786587 225.47723556 21.79823806 230.4894688 18.92053223 235.50863647 C17.91201686 237.26728749 16.9024523 239.02533209 15.89257812 240.78320312 C14.63399482 242.97472231 13.37733013 245.16734504 12.12304688 247.36132812 C1.13965312 266.46875168 -9.42838494 281.94526847 -31.34375 288.59375 C-55.69320289 294.47120415 -74.43927012 284.70587504 -94.6550293 272.40014648 C-98.10989428 270.0734505 -98.10989428 270.0734505 -102.0625 269.25 C-102.43834229 269.90145996 -102.81418457 270.55291992 -103.20141602 271.22412109 C-103.73436279 272.14789551 -104.26730957 273.07166992 -104.81640625 274.0234375 C-105.41630371 275.06363037 -106.01620117 276.10382324 -106.63427734 277.17553711 C-107.97576466 279.500025 -109.31833461 281.82384869 -110.66259766 284.14672852 C-113.83164326 289.62629291 -116.99282649 295.10918052 -120.09587097 300.62646484 C-121.07490974 302.36625108 -122.05880071 304.10330388 -123.04272461 305.84033203 C-124.26933792 308.00717502 -125.48813254 310.17847054 -126.69750977 312.35498047 C-140.26246507 336.21935991 -160.44429674 352.58021427 -186.65234375 360.30859375 C-209.2777266 365.72520889 -234.49001495 363.71054556 -255.140625 352.484375 C-257.87364652 350.72901971 -259.8786719 348.65221091 -262.0625 346.25 C-263.62389101 344.9361809 -265.18654538 343.62386271 -266.75 342.3125 C-281.8670086 328.70269315 -292.59636983 307.34999708 -293.97265625 287.0078125 C-294.60322429 267.65211531 -294.60322429 267.65211531 -292.0625 258.25 C-291.78277344 257.12722656 -291.50304687 256.00445312 -291.21484375 254.84765625 C-289.3324045 247.70658103 -287.07572432 241.46720817 -283.0625 235.25 C-278.84524256 235.83638495 -275.93590646 237.2909241 -272.30859375 239.48828125 C-271.20580078 240.14376953 -270.10300781 240.79925781 -268.96679688 241.47460938 C-266.67929534 242.84891732 -264.3970236 244.23141413 -262.11523438 245.61523438 C-251.22641598 252.07277711 -241.51247023 256.01321606 -228.75 255.8125 C-227.75452148 255.80226807 -226.75904297 255.79203613 -225.73339844 255.78149414 C-209.12893442 255.30742622 -195.81838089 248.49559706 -184.26171875 236.72607422 C-180.90153792 232.94288661 -178.45688335 228.84291773 -176 224.4375 C-175.19163696 223.03056885 -175.19163696 223.03056885 -174.36694336 221.59521484 C-172.58535055 218.48761484 -170.82416705 215.36893218 -169.0625 212.25 C-167.76450172 209.97701827 -166.46498285 207.70490432 -165.1640625 205.43359375 C-163.13215598 201.88507037 -161.10165864 198.33577696 -159.078125 194.7824707 C-154.19975091 186.217328 -149.25648535 177.69170481 -144.27929688 169.18359375 C-138.12509503 158.65942072 -132.03889095 148.09635645 -125.95361328 137.53222656 C-122.82569852 132.10340058 -119.69391552 126.67680719 -116.5625 121.25 C-115.31248121 119.08334417 -114.06248122 116.9166775 -112.8125 114.75 C-109.0625 108.25 -109.0625 108.25 -105.3125 101.75 C-104.69358887 100.67717773 -104.07467773 99.60435547 -103.43701172 98.49902344 C-102.18878966 96.33552524 -100.94041761 94.17211357 -99.69189453 92.00878906 C-96.53844744 86.54434983 -93.38773904 81.07836355 -90.2421875 75.609375 C-87.73384379 71.24835039 -85.21768974 66.89198385 -82.6953125 62.5390625 C-80.31035989 58.42282977 -77.95385998 54.29224394 -75.6171875 50.1484375 C-69.67147571 39.6995059 -63.82900803 30.54373795 -55.0625 22.25 C-54.33933594 21.52039063 -53.61617187 20.79078125 -52.87109375 20.0390625 C-38.40977779 6.13702395 -19.68257183 0.08515986 0 0 Z " fill="#FCBC00" transform="translate(425.0625,111.75)"/>
<path d="M0 0 C5.31828668 3.12435879 10.66397215 6.20097778 16.00927734 9.27880859 C17.08910889 9.90110352 18.16894043 10.52339844 19.28149414 11.16455078 C21.47156513 12.42663111 23.66175088 13.68851231 25.85205078 14.95019531 C29.11602062 16.83078965 32.37921923 18.71271405 35.64208984 20.59521484 C36.71531494 21.21436768 37.78854004 21.83352051 38.89428711 22.47143555 C41.04092435 23.71030938 43.18725006 24.94972319 45.33325195 26.18969727 C50.41541366 29.1250871 55.50096624 32.05407137 60.59921265 34.96142578 C63.01080817 36.3371765 65.4203961 37.71642206 67.82983398 39.09594727 C69.53418284 40.06982677 71.24142673 41.03863424 72.94873047 42.00732422 C73.97804688 42.59707031 75.00736328 43.18681641 76.06787109 43.79443359 C76.97593506 44.31166992 77.88399902 44.82890625 78.81958008 45.36181641 C80.90778531 46.69654098 82.48005939 48.01064527 84.13427734 49.84130859 C79.48596268 49.03436789 75.33673874 47.47583135 70.95068359 45.77880859 C53.10938476 39.83995739 31.30523519 42.82723782 14.53271484 50.48583984 C-6.37052952 61.12967577 -17.38097956 77.70350246 -28.86572266 97.40380859 C-29.61221587 98.68096012 -30.35879965 99.95805871 -31.10546875 101.23510742 C-37.79003033 112.67705541 -44.41474627 124.15346049 -51.02294922 135.63964844 C-54.13279903 141.04274467 -57.24964288 146.44180377 -60.36572266 151.84130859 C-61.61575553 154.0079563 -62.86575554 156.17462296 -64.11572266 158.34130859 C-76.61572266 180.00797526 -89.11572266 201.67464193 -101.61572266 223.34130859 C-102.23511719 224.41509766 -102.85451172 225.48888672 -103.49267578 226.59521484 C-104.73556355 228.74920804 -105.97904758 230.90285731 -107.22314453 233.05615234 C-110.1207849 238.07305329 -113.01285147 243.09288073 -115.88269043 248.12573242 C-116.89050288 249.89246683 -117.90028045 251.65806362 -118.91064453 253.42333984 C-120.17104987 255.62684568 -121.42783963 257.8324255 -122.68017578 260.04052734 C-132.83855175 277.76944719 -144.35443978 292.47824225 -164.92041016 298.17724609 C-170.00469836 299.18111566 -175.13432311 299.31358261 -180.30322266 299.40380859 C-181.23175049 299.43079834 -182.16027832 299.45778809 -183.11694336 299.4855957 C-196.72126968 299.41106117 -208.15703269 292.98092763 -219.55322266 286.15380859 C-220.71600282 285.46979159 -221.87941335 284.78684502 -223.04345703 284.10498047 C-227.03686689 281.75385164 -231.00945783 279.41215181 -234.86572266 276.84130859 C-233.94775391 275.25016276 -233.02978516 273.65901693 -232.11181641 272.06787109 C-231.51232178 271.02872559 -230.91282715 269.98958008 -230.29516602 268.91894531 C-228.94839843 266.58459218 -227.60156658 264.25027624 -226.25463867 261.91601562 C-222.84194968 256.00152371 -219.4303286 250.08642418 -216.02197266 244.16943359 C-209.42449986 232.71907434 -202.79966439 221.28559208 -196.1328125 209.87548828 C-188.64785188 197.0567317 -181.24691744 184.18941396 -173.84130859 171.32470703 C-172.48457008 168.96784569 -171.12739045 166.61123935 -169.76977539 164.25488281 C-168.50026147 162.0512399 -167.23148998 159.84716904 -165.96362305 157.64257812 C-163.21920315 152.87938415 -160.44677595 148.14324592 -157.57666016 143.45458984 C-155.53306652 140.06294978 -153.83412999 136.7925319 -152.55322266 133.02880859 C-152.24771484 132.15611328 -151.94220703 131.28341797 -151.62744141 130.38427734 C-147.80397101 117.61976847 -149.30481708 104.63981504 -155.40869141 92.86474609 C-162.10948342 81.73253785 -170.46490246 75.42767469 -181.74072266 69.21630859 C-183.9885293 67.95401902 -186.23593097 66.69100802 -188.48291016 65.42724609 C-189.55508789 64.82879883 -190.62726563 64.23035156 -191.73193359 63.61376953 C-196.16186868 61.1082126 -200.52149063 58.49208893 -204.86572266 55.84130859 C-203.60319107 51.71289848 -202.06742282 48.15081201 -199.88916016 44.42724609 C-199.30497314 43.42467773 -198.72078613 42.42210938 -198.11889648 41.38916016 C-197.18920044 39.81859863 -197.18920044 39.81859863 -196.24072266 38.21630859 C-195.60481201 37.13833008 -194.96890137 36.06035156 -194.3137207 34.94970703 C-192.50908175 31.90658134 -190.69218844 28.87137533 -188.86572266 25.84130859 C-188.24093018 24.80441895 -188.24093018 24.80441895 -187.60351562 23.74658203 C-182.59260314 15.54437512 -176.50067031 8.72758002 -169.86572266 1.84130859 C-169.28306641 1.19548828 -168.70041016 0.54966797 -168.10009766 -0.11572266 C-149.81408929 -19.83321148 -120.43560229 -30.40215813 -94.21337891 -32.09619141 C-57.87754333 -32.7745734 -30.49661654 -17.99208997 0 0 Z " fill="#2DA84F" transform="translate(376.86572265625,69.15869140625)"/>
<path d="M0 0 C1.13759766 -0.01160156 2.27519531 -0.02320312 3.44726562 -0.03515625 C13.90113679 0.00062426 23.07187597 2.09491465 32.5625 6.375 C33.65433594 6.65214844 34.74617187 6.92929688 35.87109375 7.21484375 C52.91653718 12.57198312 67.67238401 29.95668044 75.78027344 45.109375 C87.08561918 67.18528191 90.97366085 93.6744841 83.80859375 117.75390625 C81.80998039 123.56178897 79.43808018 128.94801779 76.5625 134.375 C76.1927002 135.07367188 75.82290039 135.77234375 75.44189453 136.4921875 C69.02182497 148.545566 62.13869197 160.33146662 55.23046875 172.109375 C51.49924029 178.47271035 47.80771942 184.85849555 44.125 191.25 C43.50270508 192.32975098 42.88041016 193.40950195 42.23925781 194.52197266 C40.97721274 196.71214534 39.71533148 198.90241243 38.45361328 201.09277344 C34.70761648 207.59434599 30.9572381 214.09339431 27.20532227 220.59155273 C24.31286587 225.60223556 21.42323806 230.6144688 18.54553223 235.63363647 C17.53701686 237.39228749 16.5274523 239.15033209 15.51757812 240.90820312 C14.25899482 243.09972231 13.00233013 245.29234504 11.74804688 247.48632812 C0.76465312 266.59375168 -9.80338494 282.07026847 -31.71875 288.71875 C-59.00765744 295.30572766 -79.88262301 281.73647366 -102.4375 268.375 C-101.0279342 263.51237088 -98.86692027 259.41984954 -96.25 255.125 C-95.34251595 253.60881085 -94.43635194 252.09183112 -93.53125 250.57421875 C-93.03625 249.74583496 -92.54125 248.91745117 -92.03125 248.06396484 C-89.0584771 243.04832135 -86.15810528 237.99081773 -83.25 232.9375 C-82.61296143 231.83180664 -81.97592285 230.72611328 -81.31958008 229.58691406 C-80.01049343 227.31475918 -78.70165738 225.04245991 -77.39306641 222.77001953 C-74.24417949 217.30330025 -71.0907151 211.83922354 -67.9375 206.375 C-64.17384635 199.85267561 -60.41105377 193.32986237 -56.65234375 186.8046875 C-55.39324573 184.61978212 -54.13413122 182.43488625 -52.875 180.25 C-52.25947266 179.18104492 -51.64394531 178.11208984 -51.00976562 177.01074219 C-47.90548023 171.62639017 -44.78396682 166.25321569 -41.62890625 160.8984375 C-23.46102542 130.93333543 -23.46102542 130.93333543 -22.12890625 96.71484375 C-28.40280646 74.69056643 -43.06814606 63.48161367 -62.0625 52.4375 C-63.56876953 51.55481445 -63.56876953 51.55481445 -65.10546875 50.65429688 C-67.54730147 49.22408057 -69.9912979 47.79772552 -72.4375 46.375 C-64.89973161 27.18160825 -48.83857206 13.67959343 -30.3125 5.5625 C-20.20736821 1.40950073 -10.8972287 -0.1107567 0 0 Z " fill="#E84133" transform="translate(425.4375,111.625)"/>
</svg>
